<?xml version="1.0" standalone="no"?>
<svg xmlns:xlink="http://www.w3.org/1999/xlink" id="wave" style="transform:rotate(0deg); transition: 0.3s" viewBox="0 0 1440 140" version="1.1" xmlns="http://www.w3.org/2000/svg"><defs><linearGradient id="sw-gradient-0" x1="0" x2="0" y1="1" y2="0"><stop stop-color="rgba(255, 255, 255, 1)" offset="0%"/><stop stop-color="rgba(255, 255, 255, 1)" offset="100%"/></linearGradient></defs><path style="transform:translate(0, 0px); opacity:1" fill="url(#sw-gradient-0)" d="M0,98L48,91C96,84,192,70,288,56C384,42,480,28,576,37.3C672,47,768,79,864,81.7C960,84,1056,56,1152,56C1248,56,1344,84,1440,88.7C1536,93,1632,75,1728,58.3C1824,42,1920,28,2016,37.3C2112,47,2208,79,2304,88.7C2400,98,2496,84,2592,86.3C2688,89,2784,107,2880,116.7C2976,126,3072,126,3168,114.3C3264,103,3360,79,3456,63C3552,47,3648,37,3744,42C3840,47,3936,65,4032,79.3C4128,93,4224,103,4320,91C4416,79,4512,47,4608,46.7C4704,47,4800,79,4896,86.3C4992,93,5088,75,5184,67.7C5280,61,5376,65,5472,58.3C5568,51,5664,33,5760,23.3C5856,14,5952,14,6048,21C6144,28,6240,42,6336,51.3C6432,61,6528,65,6624,63C6720,61,6816,51,6864,46.7L6912,42L6912,140L6864,140C6816,140,6720,140,6624,140C6528,140,6432,140,6336,140C6240,140,6144,140,6048,140C5952,140,5856,140,5760,140C5664,140,5568,140,5472,140C5376,140,5280,140,5184,140C5088,140,4992,140,4896,140C4800,140,4704,140,4608,140C4512,140,4416,140,4320,140C4224,140,4128,140,4032,140C3936,140,3840,140,3744,140C3648,140,3552,140,3456,140C3360,140,3264,140,3168,140C3072,140,2976,140,2880,140C2784,140,2688,140,2592,140C2496,140,2400,140,2304,140C2208,140,2112,140,2016,140C1920,140,1824,140,1728,140C1632,140,1536,140,1440,140C1344,140,1248,140,1152,140C1056,140,960,140,864,140C768,140,672,140,576,140C480,140,384,140,288,140C192,140,96,140,48,140L0,140Z"/></svg>