<?xml version="1.0" standalone="no"?>
<svg xmlns:xlink="http://www.w3.org/1999/xlink" id="wave" style="transform:rotate(0deg); transition: 0.3s" viewBox="0 0 1440 100" version="1.1" xmlns="http://www.w3.org/2000/svg"><defs><linearGradient id="sw-gradient-0" x1="0" x2="0" y1="1" y2="0"><stop stop-color="rgba(242, 241, 247, 1)" offset="0%"/><stop stop-color="rgba(242, 241, 247, 1)" offset="100%"/></linearGradient></defs><path style="transform:translate(0, 0px); opacity:1" fill="url(#sw-gradient-0)" d="M0,30L30,36.7C60,43,120,57,180,51.7C240,47,300,23,360,13.3C420,3,480,7,540,13.3C600,20,660,30,720,38.3C780,47,840,53,900,51.7C960,50,1020,40,1080,38.3C1140,37,1200,43,1260,51.7C1320,60,1380,70,1440,75C1500,80,1560,80,1620,70C1680,60,1740,40,1800,30C1860,20,1920,20,1980,30C2040,40,2100,60,2160,58.3C2220,57,2280,33,2340,25C2400,17,2460,23,2520,23.3C2580,23,2640,17,2700,23.3C2760,30,2820,50,2880,53.3C2940,57,3000,43,3060,31.7C3120,20,3180,10,3240,5C3300,0,3360,0,3420,11.7C3480,23,3540,47,3600,55C3660,63,3720,57,3780,51.7C3840,47,3900,43,3960,45C4020,47,4080,53,4140,56.7C4200,60,4260,60,4290,60L4320,60L4320,100L4290,100C4260,100,4200,100,4140,100C4080,100,4020,100,3960,100C3900,100,3840,100,3780,100C3720,100,3660,100,3600,100C3540,100,3480,100,3420,100C3360,100,3300,100,3240,100C3180,100,3120,100,3060,100C3000,100,2940,100,2880,100C2820,100,2760,100,2700,100C2640,100,2580,100,2520,100C2460,100,2400,100,2340,100C2280,100,2220,100,2160,100C2100,100,2040,100,1980,100C1920,100,1860,100,1800,100C1740,100,1680,100,1620,100C1560,100,1500,100,1440,100C1380,100,1320,100,1260,100C1200,100,1140,100,1080,100C1020,100,960,100,900,100C840,100,780,100,720,100C660,100,600,100,540,100C480,100,420,100,360,100C300,100,240,100,180,100C120,100,60,100,30,100L0,100Z"/></svg>