<?xml version="1.0" standalone="no"?><svg xmlns:xlink="http://www.w3.org/1999/xlink" xmlns="http://www.w3.org/2000/svg" viewBox="0 0 1500 107.12964566929134" preserveAspectRatio="xMaxYMax slice"><g transform="scale(1.1811023622047243)"><rect x="0" y="0" width="1360.7142857142856" height="90.71428571428571" fill="#ffffff"/><rect x="0" y="0" width="90.71" height="90.71" fill="#999ec2"/><rect x="0" y="0" width="90.71" height="90.71" fill="#fff8e4"/><rect x="90.71" y="0" width="90.71" height="90.71" fill="#ecedf4"/><rect x="90.71" y="0" width="90.71" height="90.71" fill="#e6ecdd"/><rect x="181.42857142857142" y="0" width="90.71428571428571" height="90.71428571428571" fill="#ffffff"/><rect x="181.43" y="0" width="45.36" height="45.36" fill="#b5c799"/><circle cx="204.11" cy="22.68" r="22.68" fill="#fedc7a"/><rect x="226.79" y="0" width="45.36" height="45.36" fill="#d6e0c7"/><rect x="226.79" y="0" width="45.36" height="45.36" fill="#fff4d5"/><rect x="181.43" y="45.36" width="45.36" height="45.36" fill="#e5ebdb"/><circle cx="204.11" cy="68.03999999999999" r="22.68" fill="#e5ecdc"/><rect x="226.79" y="45.36" width="45.36" height="45.36" fill="#fff5da"/><rect x="226.79" y="45.36" width="45.36" height="45.36" fill="#fee394"/><rect x="272.1428571428571" y="0" width="90.71428571428571" height="90.71428571428571" fill="#ffffff"/><rect x="272.14" y="0" width="45.36" height="45.36" fill="#fee290"/><polygon points="317.5,0 317.5,45.36 272.14,45.36" fill="#fee496"/><rect x="317.5" y="0" width="45.36" height="45.36" fill="#7d84b2"/><polygon points="317.5,0 362.86,45.36 317.5,45.36" fill="#e5e6f0"/><rect x="272.14" y="45.36" width="45.36" height="45.36" fill="#fff9e9"/><polygon points="272.14,45.36 317.5,45.36 272.14,90.72" fill="#9db579"/><rect x="317.5" y="45.36" width="45.36" height="45.36" fill="#b6bad4"/><polygon points="317.5,45.36 362.86,45.36 362.86,90.72" fill="#c0c4da"/><rect x="362.85714285714283" y="0" width="90.71428571428571" height="90.71428571428571" fill="#ffffff"/><rect x="362.86" y="0" width="45.36" height="45.36" fill="#fedf86"/><polygon points="408.22,0 408.22,45.36 362.86,45.36" fill="#9399bf"/><rect x="408.21" y="0" width="45.36" height="45.36" fill="#f4f5f9"/><polygon points="408.21,0 453.57,45.36 408.21,45.36" fill="#ffedb9"/><rect x="362.86" y="45.36" width="45.36" height="45.36" fill="#ffecb5"/><polygon points="362.86,45.36 408.22,45.36 408.22,90.72" fill="#fedd7f"/><rect x="408.21" y="45.36" width="45.36" height="45.36" fill="#fedb76"/><polygon points="408.21,45.36 453.57,45.36 408.21,90.72" fill="#fede82"/><rect x="453.57142857142856" y="0" width="90.71428571428571" height="90.71428571428571" fill="#ffffff"/><rect x="453.57" y="0" width="45.36" height="45.36" fill="#fffbf1"/><polygon points="498.93,0 498.93,45.36 453.57,45.36" fill="#9db578"/><rect x="498.93" y="0" width="45.36" height="45.36" fill="#f2f3f8"/><polygon points="498.93,0 544.29,45.36 498.93,45.36" fill="#eeeff5"/><rect x="453.57" y="45.36" width="45.36" height="45.36" fill="#fffefb"/><polygon points="453.57,45.36 498.93,45.36 453.57,90.72" fill="#bdcda5"/><rect x="498.93" y="45.36" width="45.36" height="45.36" fill="#fffcf4"/><polygon points="498.93,45.36 544.29,45.36 544.29,90.72" fill="#feeab0"/><rect x="544.2857142857142" y="0" width="90.71428571428571" height="90.71428571428571" fill="#ffffff"/><rect x="544.29" y="0" width="45.36" height="45.36" fill="#f6f7fa"/><polygon points="589.65,0 589.65,45.36 544.29,45.36" fill="#fffdf9"/><rect x="589.64" y="0" width="45.36" height="45.36" fill="#eff0f6"/><polygon points="589.64,0 635,45.36 589.64,45.36" fill="#cbcee0"/><rect x="544.29" y="45.36" width="45.36" height="45.36" fill="#fffaea"/><polygon points="544.29,45.36 589.65,45.36 544.29,90.72" fill="#acc08d"/><rect x="589.64" y="45.36" width="45.36" height="45.36" fill="#bfcfa7"/><polygon points="589.64,45.36 635,45.36 635,90.72" fill="#dbe4ce"/><rect x="635" y="0" width="90.71" height="90.71" fill="#f4f7f0"/><path d="M 635 90.71 A 90.71 90.71 0 0 0 725.71 0 L 635 0" fill="#8288b5"/><rect x="725.7142857142857" y="0" width="90.71428571428571" height="90.71428571428571" fill="#ffffff"/><rect x="725.71" y="0" width="45.36" height="45.36" fill="#fff6dd"/><path d="M 725.71 45.36 A 45.36 45.36 0 0 1 771.07 0 L 771.07 11.34 A 34.019999999999996 34.019999999999996 0 0 0 737.0500000000001 45.36" fill="#cad7b6"/><rect x="771.07" y="0" width="45.36" height="45.36" fill="#e2e3ee"/><path d="M 771.07 0 A 45.36 45.36 0 0 1 816.4300000000001 45.36 L 805.09 45.36 A 34.019999999999996 34.019999999999996 0 0 0 771.07 11.34" fill="#eef2e8"/><rect x="725.71" y="45.36" width="45.36" height="45.36" fill="#ffebb3"/><path d="M 725.71 45.36 A 45.36 45.36 0 0 0 771.07 90.72 L 771.07 79.38 A 34.019999999999996 34.019999999999996 0 0 1 737.0500000000001 45.36" fill="#bcc0d7"/><rect x="771.07" y="45.36" width="45.36" height="45.36" fill="#a8adcc"/><path d="M 771.07 90.72 A 45.36 45.36 0 0 0 816.4300000000001 45.36 L 805.09 45.36 A 34.019999999999996 34.019999999999996 0 0 1 771.07 79.38" fill="#fff8e3"/><rect x="816.43" y="0" width="90.71" height="90.71" fill="#b5c79a"/><rect x="816.43" y="0" width="90.71" height="90.71" fill="#c6d4b1"/><rect x="907.14" y="0" width="90.71" height="90.71" fill="#f4f6f0"/><path d="M 907.14 0 A 90.71 90.71 0 0 0 997.85 90.71 L 997.85 0" fill="#ffedba"/><rect x="997.86" y="0" width="90.71" height="90.71" fill="#ebecf3"/><path d="M 997.86 90.71 A 90.71 90.71 0 0 1  1088.57 0 L 1088.57 90.71" fill="#c2d1ab"/><rect x="1088.5714285714284" y="0" width="90.71428571428571" height="90.71428571428571" fill="#ffffff"/><rect x="1088.57" y="0" width="45.36" height="45.36" fill="#979cc1"/><path d="M 1088.57 0 A 45.36 45.36 0 0 1 1133.9299999999998 45.36 L 1088.57 45.36" fill="#c0c3da"/><rect x="1133.93" y="0" width="45.36" height="45.36" fill="#fffefc"/><path d="M 1133.93 45.36 A 45.36 45.36 0 0 1  1179.29 0 L 1179.29 45.36" fill="#a5bb83"/><rect x="1088.57" y="45.36" width="45.36" height="45.36" fill="#c7cade"/><path d="M 1088.57 90.72 A 45.36 45.36 0 0 0 1133.9299999999998 45.36 L 1088.57 45.36" fill="#b0c393"/><rect x="1133.93" y="45.36" width="45.36" height="45.36" fill="#fed767"/><path d="M 1133.93 45.36 A 45.36 45.36 0 0 0 1179.29 90.72 L 1179.29 45.36" fill="#feeaaf"/><rect x="1179.2857142857142" y="0" width="90.71428571428571" height="90.71428571428571" fill="#ffffff"/><rect x="1179.29" y="0" width="45.36" height="45.36" fill="#fff3d2"/><path d="M 1179.29 45.36 A 45.36 45.36 0 0 0 1224.6499999999999 0 L 1179.29 0" fill="#a5aaca"/><rect x="1224.64" y="0" width="45.36" height="45.36" fill="#ced1e2"/><path d="M 1224.64 0 A 45.36 45.36 0 0 0 1270 45.36 L 1270 0" fill="#98b172"/><rect x="1179.29" y="45.36" width="45.36" height="45.36" fill="#f1f5ec"/><path d="M 1179.29 45.36 A 45.36 45.36 0 0 1 1224.6499999999999 90.72 L 1179.29 90.72" fill="#999ec2"/><rect x="1224.64" y="45.36" width="45.36" height="45.36" fill="#fedf85"/><path d="M 1224.64 90.72 A 45.36 45.36 0 0 1  1270 45.36 L 1270 90.72" fill="#a1b87d"/><rect x="1270" y="0" width="90.71" height="90.71" fill="#d0d3e3"/><path d="M 1270 0 A 90.71 90.71 0 0 1  1360.71 90.71 L 1270 0 A 90.71 90.71 0 0 0 1360.71 90.71" fill="#fafcf9"/></g></svg>