<?xml version="1.0" standalone="no"?>
<svg xmlns:xlink="http://www.w3.org/1999/xlink" id="wave" style="transform:rotate(0deg); transition: 0.3s" viewBox="0 0 1440 100" version="1.1" xmlns="http://www.w3.org/2000/svg"><defs><linearGradient id="sw-gradient-0" x1="0" x2="0" y1="1" y2="0"><stop stop-color="rgba(241, 240, 247, 1)" offset="0%"/><stop stop-color="rgba(241, 240, 247, 1)" offset="100%"/></linearGradient></defs><path style="transform:translate(0, 0px); opacity:1" fill="url(#sw-gradient-0)" d="M0,50L30,51.7C60,53,120,57,180,51.7C240,47,300,33,360,36.7C420,40,480,60,540,61.7C600,63,660,47,720,36.7C780,27,840,23,900,18.3C960,13,1020,7,1080,15C1140,23,1200,47,1260,50C1320,53,1380,37,1440,36.7C1500,37,1560,53,1620,61.7C1680,70,1740,70,1800,70C1860,70,1920,70,1980,60C2040,50,2100,30,2160,23.3C2220,17,2280,23,2340,35C2400,47,2460,63,2520,65C2580,67,2640,53,2700,45C2760,37,2820,33,2880,31.7C2940,30,3000,30,3060,26.7C3120,23,3180,17,3240,18.3C3300,20,3360,30,3420,33.3C3480,37,3540,33,3600,26.7C3660,20,3720,10,3780,8.3C3840,7,3900,13,3960,18.3C4020,23,4080,27,4140,25C4200,23,4260,17,4290,13.3L4320,10L4320,100L4290,100C4260,100,4200,100,4140,100C4080,100,4020,100,3960,100C3900,100,3840,100,3780,100C3720,100,3660,100,3600,100C3540,100,3480,100,3420,100C3360,100,3300,100,3240,100C3180,100,3120,100,3060,100C3000,100,2940,100,2880,100C2820,100,2760,100,2700,100C2640,100,2580,100,2520,100C2460,100,2400,100,2340,100C2280,100,2220,100,2160,100C2100,100,2040,100,1980,100C1920,100,1860,100,1800,100C1740,100,1680,100,1620,100C1560,100,1500,100,1440,100C1380,100,1320,100,1260,100C1200,100,1140,100,1080,100C1020,100,960,100,900,100C840,100,780,100,720,100C660,100,600,100,540,100C480,100,420,100,360,100C300,100,240,100,180,100C120,100,60,100,30,100L0,100Z"/></svg>